<?xml version="1.0" encoding="utf-8"?>
<!-- Generator: Adobe Illustrator 19.1.0, SVG Export Plug-In . SVG Version: 6.00 Build 0)  -->
<svg version="1.1" id="图层_1" xmlns="http://www.w3.org/2000/svg" xmlns:xlink="http://www.w3.org/1999/xlink" x="0px" y="0px"
	 viewBox="-208 196.9 150.7 31.3" style="enable-background:new -208 196.9 150.7 31.3;" xml:space="preserve">
<style type="text/css">
	.st0{fill:#121C3D;}
	.st1{fill:#B5292D;}
	.st2{fill:#FFFFFF;}
</style>
<g id="XMLID_1_">
	<g id="XMLID_33_">
		<path id="XMLID_35_" class="st0" d="M-151.2,204.5c-0.8,0-1.3,0.6-1.3,1.4v13.2c0,0.8,0.6,1.4,1.3,1.4s1.3-0.6,1.3-1.4v-6.6v-6.6
			C-149.9,205.1-150.5,204.5-151.2,204.5z"/>
		<path id="XMLID_34_" class="st0" d="M-140.1,218.5l-4.6-5.2c-0.4-0.4-0.9-1.3-0.1-2.1l4.3-4.3c0.3-0.3,0.5-0.6,0.5-1
			c0-0.7-0.5-1.3-1.3-1.3c-0.5,0-0.8,0.2-1.1,0.5l-5.5,6.2c-0.5,0.5-0.5,1.3,0,1.9l5.7,6.8c0.3,0.4,0.6,0.7,1.2,0.7
			c0.8,0,1.2-0.5,1.2-1.2C-139.8,219-139.9,218.8-140.1,218.5z"/>
	</g>
	<path id="XMLID_31_" class="st0" d="M-137.2,219.1V206c0-0.8,0.6-1.4,1.4-1.4h9.1c0.7,0,1.2,0.6,1.2,1.2c0,0.7-0.6,1.2-1.2,1.2
		h-7.7v4.1h6.7c0.7,0,1.2,0.6,1.2,1.3s-0.6,1.2-1.2,1.2h-6.7v4.3h7.9c0.7,0,1.2,0.6,1.2,1.2c0,0.7-0.6,1.2-1.2,1.2h-9.2
		C-136.6,220.5-137.2,219.8-137.2,219.1z"/>
	<path id="XMLID_29_" class="st0" d="M-122.1,218.2c-0.3-0.2-0.5-0.6-0.5-1c0-0.7,0.6-1.3,1.3-1.3c0.4,0,0.6,0.1,0.8,0.2
		c1.3,1,2.4,1.9,4.1,1.9s2.8-0.8,2.8-1.9l0,0c0-1.1-0.6-1.7-3.5-2.4c-3.3-0.8-5.2-1.8-5.2-4.6l0,0c0-2.6,2.2-4.5,5.3-4.5
		c2,0,3.6,0.5,5,1.4c0.3,0.2,0.6,0.6,0.6,1.1c0,0.7-0.6,1.3-1.3,1.3c-0.3,0-0.5-0.1-0.7-0.2c-1.2-0.8-2.4-1.2-3.6-1.2
		c-1.6,0-2.6,0.8-2.6,1.8l0,0c0,1.2,0.7,1.7,3.7,2.4c3.3,0.8,5,2,5,4.5l0,0c0,2.9-2.3,4.6-5.6,4.6
		C-118.6,220.4-120.3,219.5-122.1,218.2z"/>
	<path id="XMLID_26_" class="st0" d="M-108.3,212.5L-108.3,212.5c0-4.4,3.4-8,8.2-8c4.8,0,8.2,3.6,8.2,7.9l0,0c0,4.3-3.4,8-8.2,8
		C-104.9,220.5-108.3,216.9-108.3,212.5z M-94.4,212.6L-94.4,212.6c0-3-2.6-5.6-5.7-5.6s-5.7,2.5-5.7,5.5l0,0c0,3,2.6,5.4,5.7,5.4
		C-97,218-94.4,215.6-94.4,212.6z"/>
	<path id="XMLID_25_" class="st0" d="M-155.3,218.7l-6.1-13.4c-0.3-0.6-1-0.9-1.7-0.6l0,0c-0.1,0-0.1,0.1-0.2,0.1
		c-0.2,0.1-0.4,0.3-0.6,0.6l-6.1,13.3c-0.3,0.6,0,1.4,0.6,1.7l0,0c0.6,0.3,1.4,0,1.7-0.6l5.1-11l5,11c0.3,0.6,1,0.9,1.7,0.6
		C-155.3,220.1-155,219.3-155.3,218.7z"/>
	<g id="XMLID_21_">
		<path id="XMLID_22_" class="st0" d="M-189.3,199.9c-9.2,0-14.2,4.9-14.2,12.6c0,7.5,5.3,12.6,14.4,12.6c9,0,14.2-5,14.2-12.6
			C-175,204.5-180.3,199.9-189.3,199.9z M-182.6,219.6c-0.6,0.3-1.4,0-1.7-0.6l-5-11l-5.1,11c-0.3,0.6-1,0.9-1.7,0.6l0,0
			c-0.6-0.3-0.9-1-0.6-1.7l6.1-13.4c0.1-0.3,0.3-0.5,0.6-0.6c0.1,0,0.2,0,0.2,0l0,0c0.6-0.3,1.4,0,1.7,0.6l6.2,13.4
			C-181.6,218.5-181.9,219.3-182.6,219.6z"/>
	</g>
</g>
<path class="st1" d="M-65.6,221.6h-12.6c-1.6,0-2.9-1.3-2.9-2.9v-12.3c0-1.6,1.3-2.9,2.9-2.9h12.6c1.6,0,2.9,1.3,2.9,2.9v12.3
	C-62.7,220.3-64,221.6-65.6,221.6z"/>
<g>
	<path class="st2" d="M-74.3,216h2v-6.6h-1.6v-0.7c0.8-0.1,1.3-0.3,1.8-0.6h0.8v7.9h1.8v0.9h-4.8V216z"/>
</g>
</svg>
