<?xml version="1.0" encoding="UTF-8" standalone="no"?>
<svg width="130px" height="130px" viewBox="0 0 130 130" version="1.1" xmlns="http://www.w3.org/2000/svg" xmlns:xlink="http://www.w3.org/1999/xlink" xmlns:sketch="http://www.bohemiancoding.com/sketch/ns">
    <!-- Generator: sketchtool 3.4 (356) - http://www.bohemiancoding.com/sketch -->
    <title>Oval 8 + Oval 8 Copy 4 + Page 1</title>
    <desc>Created with sketchtool.</desc>
    <defs></defs>
    <g id="Page-1" stroke="none" stroke-width="1" fill="none" fill-rule="evenodd" sketch:type="MSPage">
        <g id="健康中心" sketch:type="MSArtboardGroup" transform="translate(-441.000000, -952.000000)">
            <g id="Oval-8-+-Oval-8-Copy-4-+-家庭式服务-+-Page-1" sketch:type="MSLayerGroup" transform="translate(441.000000, 952.000000)">
                <g id="Oval-8-+-Oval-8-Copy-4-+-Page-1" transform="translate(1.000000, 1.000000)" sketch:type="MSShapeGroup">
                    <g id="Oval-8-+-Oval-8-Copy-4" stroke="#4F8FDA" stroke-width="2">
                        <path d="M64,128 C99.346224,128 128,99.346224 128,64 C128,28.653776 99.346224,0 64,0 C28.653776,0 0,28.653776 0,64 C0,99.346224 28.653776,128 64,128 Z" id="Oval-8"></path>
                        <path d="M64.5,120 C95.1518036,120 120,95.1518036 120,64.5 C120,33.8481964 95.1518036,9 64.5,9 C33.8481964,9 9,33.8481964 9,64.5 C9,95.1518036 33.8481964,120 64.5,120 Z" id="Oval-8" opacity="0.302472015"></path>
                    </g>
                    <g id="Page-1" transform="translate(28.000000, 30.000000)">
                        <path d="M9.95968235,61.0219658 C9.95968235,61.0219658 9.89709412,62.5853605 11.4165059,62.5853605 C13.3040353,62.5853605 28.9198,62.5638079 28.9198,62.5638079 L28.9453294,48.1260316 C28.9453294,48.1260316 28.6999176,45.7452947 30.9934471,45.7452947 L38.2569765,45.7452947 C40.9705059,45.7452947 40.8049765,48.1260316 40.8049765,48.1260316 L40.7736824,62.5198737 L57.9088588,62.5198737 C59.8334471,62.5198737 59.7461529,60.5743342 59.7461529,60.5743342 L59.7461529,33.9510316 L35.5969765,12.3279395 L9.95968235,33.9510316 L9.95968235,61.0219658 Z" id="Fill-1" fill="#DFF1F5"></path>
                        <path d="M9.95968235,61.0219658 C9.95968235,61.0219658 9.89709412,62.5853605 11.4165059,62.5853605 C13.3040353,62.5853605 28.9198,62.5638079 28.9198,62.5638079 L28.9453294,48.1260316 C28.9453294,48.1260316 28.6999176,45.7452947 30.9934471,45.7452947 L38.2569765,45.7452947 C40.9705059,45.7452947 40.8049765,48.1260316 40.8049765,48.1260316 L40.7736824,62.5198737 L57.9088588,62.5198737 C59.8334471,62.5198737 59.7461529,60.5743342 59.7461529,60.5743342 L59.7461529,33.9510316 L35.5969765,12.3279395 L9.95968235,33.9510316 L9.95968235,61.0219658 L9.95968235,61.0219658 Z" id="Stroke-3" stroke="#1B91D1" stroke-linecap="round"></path>
                        <path d="M0.518329412,31.9412487 C0.518329412,31.9412487 2.69244706,35.9773934 7.44256471,31.9412487 L35.8115059,7.78323553 L62.4098588,31.7912092 C67.9044471,35.7801039 69.9640941,31.7912092 69.9640941,31.7912092 L35.8115059,0.650143421 L0.518329412,31.9412487 L0.518329412,31.9412487 Z" id="Stroke-5" stroke="#1080C3"></path>
                        <path d="M61.7636353,7.72612105 L54.9225765,7.72612105 L54.9497529,16.0761079 L61.7636353,21.8944895 L61.7636353,7.72612105 Z" id="Fill-7" fill="#1080C3"></path>
                    </g>
                </g>
            </g>
        </g>
    </g>
</svg>