<svg xmlns="http://www.w3.org/2000/svg" xmlns:xlink="http://www.w3.org/1999/xlink" preserveAspectRatio="xMidYMid" width="161" height="37" viewBox="0 0 161 37">
  <defs>
    <style>
      .cls-1 {
        fill: #121b3c;
        fill-rule: evenodd;
      }
    </style>
  </defs>
  <path d="M149.185,25.797 C142.265,25.797 137.437,20.744 137.437,14.633 L137.437,14.572 C137.437,8.461 142.328,3.344 149.251,3.344 C156.170,3.344 160.999,8.400 160.999,14.509 L160.999,14.572 C160.999,20.681 156.107,25.797 149.185,25.797 ZM157.388,14.632 C157.388,10.412 153.659,6.850 149.185,6.850 C144.711,6.850 141.027,10.322 141.027,14.540 L141.027,14.603 C141.027,18.820 144.776,22.262 149.251,22.262 C153.725,22.262 157.388,18.910 157.388,14.693 L157.388,14.632 ZM134.293,33.971 C134.293,34.129 134.315,34.277 134.359,34.415 C134.404,34.552 134.470,34.672 134.558,34.775 C134.647,34.878 134.758,34.958 134.890,35.016 C135.023,35.075 135.178,35.104 135.355,35.104 C135.476,35.104 135.587,35.091 135.687,35.067 C135.786,35.042 135.874,35.008 135.950,34.964 C136.026,34.921 136.088,34.872 136.138,34.816 C136.187,34.760 136.222,34.701 136.242,34.639 L136.871,34.639 C136.856,34.738 136.814,34.846 136.744,34.961 C136.675,35.076 136.577,35.182 136.452,35.280 C136.327,35.378 136.174,35.459 135.992,35.524 C135.810,35.588 135.597,35.620 135.355,35.620 C135.092,35.620 134.857,35.580 134.649,35.500 C134.442,35.419 134.267,35.305 134.124,35.158 C133.982,35.010 133.873,34.833 133.798,34.626 C133.724,34.419 133.686,34.189 133.686,33.933 L133.686,33.302 C133.686,33.042 133.726,32.807 133.806,32.598 C133.885,32.388 133.997,32.209 134.141,32.061 C134.285,31.912 134.457,31.798 134.655,31.717 C134.854,31.637 135.072,31.596 135.309,31.596 C135.547,31.596 135.764,31.637 135.961,31.717 C136.159,31.798 136.328,31.912 136.471,32.061 C136.614,32.209 136.725,32.388 136.805,32.598 C136.884,32.807 136.924,33.042 136.924,33.302 L136.924,33.774 L134.293,33.774 L134.293,33.971 ZM136.325,33.324 L136.325,33.246 C136.325,33.075 136.301,32.920 136.253,32.780 C136.205,32.640 136.137,32.521 136.049,32.423 C135.960,32.325 135.853,32.249 135.728,32.194 C135.603,32.140 135.463,32.113 135.309,32.113 C135.155,32.113 135.015,32.140 134.890,32.194 C134.765,32.249 134.658,32.325 134.570,32.423 C134.481,32.521 134.413,32.640 134.365,32.780 C134.317,32.920 134.293,33.075 134.293,33.246 L134.293,33.324 L136.325,33.324 ZM125.638,25.753 C122.581,25.753 120.104,24.408 117.593,22.608 C117.142,22.297 116.822,21.769 116.822,21.150 C116.822,20.157 117.659,19.381 118.688,19.381 C119.236,19.381 119.590,19.535 119.847,19.722 C121.713,21.150 123.289,22.369 125.735,22.369 C128.180,22.369 129.727,21.252 129.727,19.638 L129.727,19.577 C129.727,18.025 128.825,17.186 124.642,16.256 C119.845,15.139 117.140,13.772 117.140,9.769 L117.140,9.706 C117.140,5.984 120.359,3.406 124.833,3.406 C127.667,3.406 129.952,4.121 131.981,5.425 C132.432,5.673 132.848,6.201 132.848,6.944 C132.848,7.937 132.012,8.713 130.982,8.713 C130.597,8.713 130.275,8.622 129.952,8.435 C128.214,7.349 126.539,6.790 124.770,6.790 C122.450,6.790 121.100,7.937 121.100,9.365 L121.100,9.428 C121.100,11.104 122.131,11.849 126.477,12.842 C131.239,13.959 133.687,15.604 133.687,19.203 L133.687,19.266 C133.687,23.332 130.371,25.753 125.638,25.753 ZM111.104,22.283 C112.068,22.283 112.873,23.084 112.873,24.045 C112.873,25.035 112.068,25.804 111.104,25.804 L97.841,25.804 C96.714,25.804 95.844,24.939 95.844,23.821 L95.844,5.387 C95.844,4.266 96.714,3.401 97.841,3.401 L110.941,3.401 C111.908,3.401 112.713,4.201 112.713,5.163 C112.713,6.153 111.908,6.922 110.941,6.922 L99.804,6.922 L99.804,12.746 L109.494,12.746 C110.459,12.746 111.263,13.546 111.263,14.539 C111.263,15.498 110.459,16.266 109.494,16.266 L99.804,16.266 L99.804,22.283 L111.104,22.283 ZM91.722,23.029 C92.003,23.404 92.112,23.694 92.112,24.130 C92.112,25.209 91.452,25.884 90.325,25.884 C89.551,25.884 89.069,25.504 88.650,24.964 L80.401,15.402 C79.744,14.641 79.761,13.521 80.441,12.779 L88.424,4.065 C88.875,3.589 89.357,3.336 90.068,3.336 C91.161,3.336 91.902,4.192 91.902,5.146 C91.902,5.749 91.643,6.194 91.192,6.608 L85.018,12.682 C83.879,13.844 84.527,15.114 85.151,15.703 L91.722,23.029 ZM75.719,25.884 C74.624,25.884 73.777,25.028 73.777,23.947 L73.777,5.273 C73.777,4.192 74.624,3.336 75.719,3.336 C76.782,3.336 77.628,4.192 77.628,5.273 L77.628,14.674 L77.628,23.947 C77.628,25.028 76.782,25.884 75.719,25.884 ZM66.559,24.763 L59.322,9.310 L52.047,24.848 C51.628,25.742 50.539,26.138 49.625,25.728 C48.713,25.317 48.309,24.250 48.727,23.355 L57.568,4.474 C57.742,4.104 58.034,3.825 58.378,3.647 C58.454,3.598 58.530,3.548 58.616,3.510 C59.529,3.100 60.618,3.496 61.037,4.390 L69.878,23.271 C70.297,24.165 69.893,25.233 68.980,25.643 C68.067,26.054 66.977,25.658 66.559,24.763 ZM20.653,35.648 C7.644,35.648 0.001,28.449 0.001,17.850 C0.001,6.960 7.292,0.012 20.561,0.012 C33.503,0.012 41.037,6.584 41.037,17.850 C41.037,28.633 33.637,35.648 20.653,35.648 ZM30.196,27.753 C31.109,27.343 31.513,26.275 31.094,25.381 L22.253,6.500 C21.834,5.605 20.744,5.210 19.832,5.620 C19.746,5.658 19.670,5.708 19.594,5.757 C19.250,5.935 18.958,6.213 18.784,6.584 L9.943,25.465 C9.524,26.360 9.929,27.427 10.841,27.838 L10.842,27.838 C11.754,28.248 12.844,27.852 13.263,26.958 L20.538,11.420 L27.774,26.873 C28.193,27.768 29.283,28.164 30.196,27.753 ZM138.316,31.663 L139.423,34.951 L139.457,34.951 L140.568,31.663 L141.194,31.663 L139.760,35.598 L139.658,35.873 C139.605,36.014 139.546,36.152 139.482,36.285 C139.417,36.419 139.337,36.539 139.241,36.644 C139.145,36.749 139.028,36.833 138.888,36.897 C138.749,36.960 138.579,36.991 138.377,36.991 C138.311,36.991 138.243,36.988 138.172,36.982 C138.101,36.976 138.043,36.969 137.998,36.962 L137.998,36.467 C138.025,36.475 138.069,36.480 138.128,36.484 C138.188,36.488 138.239,36.490 138.282,36.490 C138.398,36.490 138.499,36.476 138.585,36.447 C138.671,36.419 138.745,36.376 138.807,36.321 C138.869,36.265 138.921,36.198 138.962,36.120 C139.004,36.042 139.039,35.952 139.067,35.851 L139.139,35.620 L137.656,31.663 L138.316,31.663 ZM142.449,32.061 C142.593,31.912 142.764,31.798 142.962,31.717 C143.161,31.637 143.379,31.596 143.617,31.596 C143.854,31.596 144.072,31.637 144.269,31.717 C144.466,31.798 144.636,31.912 144.779,32.061 C144.921,32.209 145.033,32.388 145.112,32.598 C145.192,32.807 145.232,33.042 145.232,33.302 L145.232,33.774 L142.600,33.774 L142.600,33.971 C142.600,34.129 142.623,34.277 142.667,34.415 C142.711,34.552 142.777,34.672 142.866,34.775 C142.954,34.878 143.065,34.958 143.198,35.016 C143.330,35.075 143.485,35.104 143.662,35.104 C143.783,35.104 143.894,35.091 143.994,35.067 C144.094,35.042 144.182,35.008 144.257,34.964 C144.333,34.921 144.396,34.872 144.445,34.816 C144.494,34.760 144.529,34.701 144.549,34.639 L145.179,34.639 C145.163,34.738 145.121,34.846 145.052,34.961 C144.982,35.076 144.885,35.182 144.760,35.280 C144.635,35.378 144.481,35.459 144.299,35.524 C144.117,35.588 143.905,35.620 143.662,35.620 C143.399,35.620 143.164,35.580 142.957,35.500 C142.750,35.419 142.575,35.305 142.432,35.158 C142.289,35.010 142.180,34.833 142.105,34.626 C142.031,34.419 141.994,34.189 141.994,33.933 L141.994,33.302 C141.994,33.042 142.034,32.807 142.113,32.598 C142.193,32.388 142.305,32.209 142.449,32.061 ZM142.600,33.324 L144.633,33.324 L144.633,33.246 C144.633,33.075 144.609,32.920 144.561,32.780 C144.513,32.640 144.444,32.521 144.356,32.423 C144.267,32.325 144.161,32.249 144.036,32.194 C143.910,32.140 143.771,32.113 143.617,32.113 C143.462,32.113 143.323,32.140 143.198,32.194 C143.072,32.249 142.966,32.325 142.877,32.423 C142.789,32.521 142.720,32.640 142.672,32.780 C142.624,32.920 142.600,33.075 142.600,33.246 L142.600,33.324 ZM146.650,32.053 C146.791,31.907 146.963,31.794 147.164,31.715 C147.364,31.636 147.590,31.596 147.840,31.596 C148.086,31.596 148.301,31.630 148.487,31.698 C148.673,31.767 148.828,31.855 148.951,31.964 C149.075,32.073 149.169,32.196 149.234,32.332 C149.298,32.468 149.333,32.603 149.338,32.737 L148.743,32.737 C148.730,32.685 148.707,32.623 148.674,32.551 C148.642,32.479 148.592,32.411 148.525,32.345 C148.458,32.279 148.369,32.224 148.259,32.180 C148.149,32.135 148.012,32.113 147.848,32.113 C147.676,32.113 147.526,32.141 147.397,32.198 C147.268,32.255 147.160,32.335 147.073,32.438 C146.985,32.541 146.920,32.664 146.875,32.809 C146.831,32.954 146.809,33.116 146.809,33.294 L146.809,33.956 C146.809,34.129 146.833,34.285 146.881,34.424 C146.929,34.563 146.998,34.681 147.088,34.779 C147.177,34.877 147.286,34.951 147.414,35.003 C147.542,35.055 147.686,35.081 147.848,35.081 C148.002,35.081 148.134,35.067 148.242,35.037 C148.351,35.007 148.441,34.967 148.513,34.916 C148.585,34.865 148.642,34.807 148.682,34.741 C148.723,34.676 148.753,34.607 148.773,34.535 L149.372,34.535 C149.365,34.667 149.329,34.797 149.266,34.925 C149.203,35.054 149.109,35.170 148.985,35.273 C148.862,35.376 148.705,35.459 148.515,35.524 C148.326,35.588 148.101,35.620 147.840,35.620 C147.590,35.620 147.364,35.581 147.164,35.503 C146.963,35.425 146.791,35.314 146.650,35.169 C146.508,35.024 146.400,34.849 146.324,34.643 C146.248,34.438 146.210,34.206 146.210,33.948 L146.210,33.265 C146.210,33.012 146.248,32.784 146.324,32.579 C146.400,32.375 146.508,32.200 146.650,32.053 ZM150.610,33.605 C150.728,33.504 150.872,33.426 151.044,33.370 C151.216,33.315 151.416,33.287 151.643,33.287 L152.709,33.287 L152.709,32.889 C152.709,32.755 152.688,32.640 152.646,32.544 C152.605,32.447 152.546,32.367 152.470,32.304 C152.394,32.241 152.302,32.194 152.193,32.165 C152.084,32.135 151.962,32.120 151.825,32.120 C151.691,32.120 151.577,32.132 151.482,32.156 C151.387,32.179 151.307,32.211 151.241,32.252 C151.176,32.293 151.122,32.343 151.080,32.401 C151.038,32.459 151.006,32.523 150.984,32.592 L150.411,32.592 C150.426,32.426 150.471,32.281 150.546,32.156 C150.620,32.030 150.720,31.926 150.845,31.843 C150.970,31.760 151.118,31.698 151.289,31.658 C151.459,31.617 151.648,31.596 151.856,31.596 C152.053,31.596 152.240,31.619 152.417,31.665 C152.594,31.711 152.749,31.785 152.881,31.886 C153.014,31.988 153.119,32.120 153.198,32.284 C153.276,32.447 153.315,32.647 153.315,32.882 L153.315,35.561 L152.732,35.561 L152.732,35.037 L152.709,35.037 C152.658,35.116 152.598,35.191 152.527,35.262 C152.456,35.332 152.373,35.394 152.279,35.447 C152.184,35.501 152.076,35.543 151.954,35.574 C151.833,35.605 151.699,35.620 151.552,35.620 C151.360,35.620 151.184,35.592 151.025,35.535 C150.866,35.478 150.730,35.397 150.616,35.291 C150.502,35.186 150.414,35.060 150.350,34.914 C150.287,34.768 150.256,34.606 150.256,34.428 C150.256,34.259 150.285,34.105 150.345,33.965 C150.404,33.825 150.492,33.705 150.610,33.605 ZM150.938,34.728 C150.984,34.815 151.045,34.888 151.122,34.946 C151.199,35.004 151.288,35.047 151.389,35.076 C151.490,35.105 151.596,35.119 151.708,35.119 C151.849,35.119 151.981,35.096 152.102,35.050 C152.223,35.004 152.329,34.942 152.419,34.862 C152.508,34.783 152.579,34.689 152.631,34.582 C152.683,34.474 152.709,34.357 152.709,34.231 L152.709,33.774 L151.662,33.774 C151.521,33.774 151.399,33.790 151.298,33.824 C151.197,33.857 151.115,33.902 151.052,33.959 C150.989,34.016 150.943,34.084 150.913,34.164 C150.884,34.243 150.870,34.328 150.870,34.420 C150.870,34.539 150.892,34.642 150.938,34.728 ZM155.348,32.258 L155.382,32.258 C155.407,32.196 155.445,32.127 155.496,32.051 C155.546,31.976 155.616,31.905 155.704,31.838 C155.792,31.771 155.902,31.715 156.032,31.671 C156.162,31.626 156.318,31.604 156.500,31.604 C156.536,31.604 156.572,31.605 156.610,31.607 C156.648,31.610 156.689,31.614 156.732,31.619 L156.732,32.161 C156.696,32.156 156.650,32.152 156.593,32.148 C156.536,32.144 156.479,32.142 156.421,32.142 C156.244,32.142 156.088,32.167 155.954,32.217 C155.821,32.266 155.709,32.334 155.619,32.421 C155.529,32.508 155.461,32.609 155.416,32.724 C155.370,32.839 155.348,32.962 155.348,33.094 L155.348,35.561 L154.760,35.561 L154.760,31.663 L155.348,31.663 L155.348,32.258 ZM157.922,32.061 C158.066,31.912 158.238,31.798 158.436,31.717 C158.634,31.637 158.852,31.596 159.090,31.596 C159.328,31.596 159.545,31.637 159.742,31.717 C159.939,31.798 160.109,31.912 160.252,32.061 C160.395,32.209 160.506,32.388 160.586,32.598 C160.666,32.807 160.705,33.042 160.705,33.302 L160.705,33.774 L158.074,33.774 L158.074,33.971 C158.074,34.129 158.096,34.277 158.140,34.415 C158.184,34.552 158.251,34.672 158.339,34.775 C158.428,34.878 158.538,34.958 158.671,35.016 C158.804,35.075 158.958,35.104 159.135,35.104 C159.257,35.104 159.368,35.091 159.467,35.067 C159.567,35.042 159.655,35.008 159.731,34.964 C159.807,34.921 159.869,34.872 159.918,34.816 C159.968,34.760 160.003,34.701 160.023,34.639 L160.652,34.639 C160.637,34.738 160.595,34.846 160.525,34.961 C160.456,35.076 160.358,35.182 160.233,35.280 C160.108,35.378 159.954,35.459 159.772,35.524 C159.590,35.588 159.378,35.620 159.135,35.620 C158.873,35.620 158.638,35.580 158.430,35.500 C158.223,35.419 158.048,35.305 157.905,35.158 C157.762,35.010 157.653,34.833 157.579,34.626 C157.504,34.419 157.467,34.189 157.467,33.933 L157.467,33.302 C157.467,33.042 157.507,32.807 157.587,32.598 C157.666,32.388 157.778,32.209 157.922,32.061 ZM158.074,33.324 L160.106,33.324 L160.106,33.246 C160.106,33.075 160.082,32.920 160.034,32.780 C159.986,32.640 159.918,32.521 159.829,32.423 C159.741,32.325 159.634,32.249 159.509,32.194 C159.384,32.140 159.244,32.113 159.090,32.113 C158.936,32.113 158.796,32.140 158.671,32.194 C158.546,32.249 158.439,32.325 158.351,32.423 C158.262,32.521 158.194,32.640 158.146,32.780 C158.098,32.920 158.074,33.075 158.074,33.246 L158.074,33.324 Z" class="cls-1"/>
</svg>
