<svg xmlns="http://www.w3.org/2000/svg" xmlns:xlink="http://www.w3.org/1999/xlink" preserveAspectRatio="xMidYMid" width="162" height="36" viewBox="0 0 162 36">
  <defs>
    <style>

      .cls-2 {
        fill: #ffffff;
      }
    </style>
  </defs>
  <path d="M150.361,29.439 C143.544,29.439 138.787,24.287 138.787,18.057 C138.787,18.057 138.787,17.995 138.787,17.995 C138.787,11.765 143.606,6.549 150.426,6.549 C157.243,6.549 162.000,11.703 162.000,17.931 C162.000,17.931 162.000,17.995 162.000,17.995 C162.000,24.223 157.181,29.439 150.361,29.439 ZM157.909,17.995 C157.909,13.693 154.769,10.122 150.361,10.122 C145.953,10.122 142.877,13.632 142.877,17.931 C142.877,17.931 142.877,17.995 142.877,17.995 C142.877,22.295 146.018,25.835 150.426,25.835 C154.834,25.835 157.909,22.356 157.909,18.057 C157.909,18.057 157.909,17.995 157.909,17.995 ZM127.231,29.377 C124.220,29.377 121.364,28.427 118.890,26.594 C118.446,26.277 118.131,25.739 118.131,25.108 C118.131,24.097 118.954,23.306 119.969,23.306 C120.509,23.306 120.858,23.463 121.111,23.654 C122.949,25.108 124.917,25.930 127.326,25.930 C129.736,25.930 131.259,24.792 131.259,23.147 C131.259,23.147 131.259,23.085 131.259,23.085 C131.259,21.504 130.371,20.649 126.250,19.702 C121.524,18.564 118.859,17.171 118.859,13.093 C118.859,13.093 118.859,13.029 118.859,13.029 C118.859,9.237 122.030,6.611 126.438,6.611 C129.230,6.611 131.481,7.339 133.480,8.668 C133.924,8.920 134.335,9.458 134.335,10.215 C134.335,11.227 133.511,12.017 132.496,12.017 C132.117,12.017 131.799,11.924 131.481,11.734 C129.769,10.627 128.119,10.058 126.376,10.058 C124.091,10.058 122.761,11.227 122.761,12.681 C122.761,12.681 122.761,12.746 122.761,12.746 C122.761,14.453 123.776,15.212 128.057,16.224 C132.749,17.362 135.161,19.038 135.161,22.704 C135.161,22.704 135.161,22.768 135.161,22.768 C135.161,26.911 131.895,29.377 127.231,29.377 ZM113.235,25.582 C114.185,25.582 114.978,26.373 114.978,27.323 C114.978,28.301 114.185,29.060 113.235,29.060 C113.235,29.060 100.168,29.060 100.168,29.060 C99.058,29.060 98.200,28.206 98.200,27.101 C98.200,27.101 98.200,8.889 98.200,8.889 C98.200,7.782 99.058,6.927 100.168,6.927 C100.168,6.927 113.074,6.927 113.074,6.927 C114.027,6.927 114.820,7.717 114.820,8.668 C114.820,9.646 114.027,10.405 113.074,10.405 C113.074,10.405 102.102,10.405 102.102,10.405 C102.102,10.405 102.102,16.159 102.102,16.159 C102.102,16.159 111.649,16.159 111.649,16.159 C112.599,16.159 113.392,16.950 113.392,17.931 C113.392,18.878 112.599,19.638 111.649,19.638 C111.649,19.638 102.102,19.638 102.102,19.638 C102.102,19.638 102.102,25.582 102.102,25.582 C102.102,25.582 113.235,25.582 113.235,25.582 ZM93.307,25.930 C93.622,26.342 93.844,26.720 93.844,27.323 C93.844,28.396 92.989,29.218 91.879,29.218 C91.117,29.218 90.642,28.839 90.229,28.301 C90.229,28.301 82.328,19.047 82.328,19.047 C81.553,18.139 81.573,16.798 82.375,15.914 C82.375,15.914 90.007,7.496 90.007,7.496 C90.451,7.022 90.926,6.770 91.626,6.770 C92.702,6.770 93.433,7.622 93.433,8.572 C93.433,9.172 93.178,9.615 92.733,10.027 C92.733,10.027 87.249,15.946 87.249,15.946 C86.415,16.845 86.404,18.228 87.222,19.142 C87.222,19.142 93.307,25.930 93.307,25.930 ZM77.544,29.218 C76.434,29.218 75.576,28.365 75.576,27.289 C75.576,27.289 75.576,8.698 75.576,8.698 C75.576,7.622 76.434,6.770 77.544,6.770 C78.621,6.770 79.478,7.622 79.478,8.698 C79.478,8.698 79.478,18.057 79.478,18.057 C79.478,18.057 79.478,27.289 79.478,27.289 C79.478,28.365 78.621,29.218 77.544,29.218 ZM69.505,29.218 C68.586,29.218 67.951,28.682 67.602,27.858 C67.602,27.858 60.402,11.322 60.402,11.322 C60.402,11.322 53.141,27.984 53.141,27.984 C52.823,28.775 52.157,29.218 51.333,29.218 C50.318,29.218 49.526,28.427 49.526,27.415 C49.526,27.132 49.621,26.846 49.779,26.530 C49.779,26.530 58.024,8.191 58.024,8.191 C58.468,7.213 59.261,6.611 60.371,6.611 C60.371,6.611 60.562,6.611 60.562,6.611 C61.673,6.611 62.432,7.213 62.876,8.191 C62.876,8.191 71.122,26.530 71.122,26.530 C71.282,26.815 71.344,27.101 71.344,27.353 C71.344,28.396 70.551,29.218 69.505,29.218 ZM20.508,36.002 C7.584,36.002 -0.009,28.727 -0.009,18.014 C-0.009,7.007 7.235,-0.015 20.417,-0.015 C33.274,-0.015 40.758,6.627 40.758,18.014 C40.758,28.913 33.407,36.002 20.508,36.002 ZM28.744,25.236 C28.744,25.042 28.696,24.823 28.574,24.604 C28.574,24.604 22.248,10.535 22.248,10.535 C21.907,9.784 21.325,9.322 20.473,9.322 C20.473,9.322 20.326,9.322 20.326,9.322 C19.474,9.322 18.866,9.784 18.525,10.535 C18.525,10.535 12.200,24.604 12.200,24.604 C12.079,24.847 12.005,25.066 12.005,25.283 C12.005,26.059 12.613,26.666 13.392,26.666 C14.024,26.666 14.535,26.326 14.779,25.720 C14.779,25.720 20.350,12.936 20.350,12.936 C20.350,12.936 23.343,19.802 23.343,19.802 C23.343,19.802 23.339,19.802 23.339,19.802 C23.339,19.802 25.873,25.623 25.873,25.623 C26.141,26.255 26.628,26.666 27.333,26.666 C28.136,26.666 28.744,26.036 28.744,25.236 Z" id="path-1" class="cls-2" fill-rule="evenodd"/>
</svg>
