<?xml version="1.0" encoding="UTF-8" standalone="no"?>
<svg width="130px" height="130px" viewBox="0 0 130 130" version="1.1" xmlns="http://www.w3.org/2000/svg" xmlns:xlink="http://www.w3.org/1999/xlink" xmlns:sketch="http://www.bohemiancoding.com/sketch/ns">
    <!-- Generator: sketchtool 3.4 (356) - http://www.bohemiancoding.com/sketch -->
    <title>Oval 8 + Oval 8 Copy + Page 1</title>
    <desc>Created with sketchtool.</desc>
    <defs>
        <path id="path-1" d="M0,0.572860465 L81.5361373,0.572860465 L81.5361373,69 L0,69"></path>
    </defs>
    <g id="Page-1" stroke="none" stroke-width="1" fill="none" fill-rule="evenodd" sketch:type="MSPage">
        <g id="健康中心" sketch:type="MSArtboardGroup" transform="translate(-441.000000, -469.000000)">
            <g id="Oval-8-+-Oval-8-Copy-+-专业级验光服务-+-Page-1" sketch:type="MSLayerGroup" transform="translate(441.000000, 469.000000)">
                <g id="Oval-8-+-Oval-8-Copy-+-Page-1" transform="translate(1.000000, 1.000000)">
                    <g id="Oval-8-+-Oval-8-Copy" stroke="#4F8FDA" stroke-width="2" sketch:type="MSShapeGroup">
                        <path d="M64,128 C99.346224,128 128,99.346224 128,64 C128,28.653776 99.346224,0 64,0 C28.653776,0 0,28.653776 0,64 C0,99.346224 28.653776,128 64,128 Z" id="Oval-8"></path>
                        <path d="M64.5,120 C95.1518036,120 120,95.1518036 120,64.5 C120,33.8481964 95.1518036,9 64.5,9 C33.8481964,9 9,33.8481964 9,64.5 C9,95.1518036 33.8481964,120 64.5,120 Z" id="Oval-8" opacity="0.302472015"></path>
                    </g>
                    <g id="Page-1" transform="translate(23.000000, 30.000000)">
                        <g id="Group-7" sketch:type="MSShapeGroup">
                            <g id="Group-4">
                                <path d="M56.9119392,36.3762384 L81.1349,36.3489593" id="Fill-1" fill="#37ABE2"></path>
                                <path d="M56.9119392,36.3762384 L81.1349,36.3489593" id="Stroke-3" stroke="#246FB7" stroke-linecap="round" stroke-linejoin="round" stroke-dasharray="0.1,2"></path>
                            </g>
                            <path d="M32.5120353,33.1811372 L36.3129765,36.3623581 L0.4018,36.4032767" id="Stroke-5" stroke="#246FB7" stroke-linecap="round" stroke-linejoin="round"></path>
                        </g>
                        <g id="Group-10" transform="translate(32.960784, 36.104651)" sketch:type="MSShapeGroup">
                            <path d="M0.0408392157,2.86999884 L3.35219216,0.257626744" id="Fill-8" fill="#37ABE2"></path>
                            <path d="M0.0408392157,2.86999884 L3.35219216,0.257626744" id="Stroke-9" stroke="#246FB7" stroke-linecap="round" stroke-linejoin="round"></path>
                        </g>
                        <g id="Group-17" sketch:type="MSShapeGroup">
                            <g id="Group-14">
                                <path d="M56.9119392,26.0397977 L81.1349,26.0125186" id="Fill-11" fill="#37ABE2"></path>
                                <path d="M56.9119392,26.0397977 L81.1349,26.0125186" id="Stroke-13" stroke="#246FB7" stroke-linecap="round" stroke-linejoin="round" stroke-dasharray="0.1,2"></path>
                            </g>
                            <path d="M32.5120353,22.8446965 L36.3129765,26.0259174 L0.4018,26.066836" id="Stroke-15" stroke="#246FB7" stroke-linecap="round" stroke-linejoin="round"></path>
                        </g>
                        <g id="Group-20" transform="translate(32.960784, 25.674419)" sketch:type="MSShapeGroup">
                            <path d="M0.0408392157,2.9637907 L3.35219216,0.351418605" id="Fill-18" fill="#37ABE2"></path>
                            <path d="M0.0408392157,2.9637907 L3.35219216,0.351418605" id="Stroke-19" stroke="#246FB7" stroke-linecap="round" stroke-linejoin="round"></path>
                        </g>
                        <g id="Group-27" sketch:type="MSShapeGroup">
                            <g id="Group-24">
                                <path d="M56.9119392,46.7126791 L81.1349,46.6854" id="Fill-21" fill="#37ABE2"></path>
                                <path d="M56.9119392,46.7126791 L81.1349,46.6854" id="Stroke-23" stroke="#246FB7" stroke-linecap="round" stroke-linejoin="round" stroke-dasharray="0.1,2"></path>
                            </g>
                            <path d="M32.5120353,43.5175779 L36.3129765,46.6987988 L0.4018,46.7397174" id="Stroke-25" stroke="#246FB7" stroke-linecap="round" stroke-linejoin="round"></path>
                        </g>
                        <g id="Group-30" transform="translate(32.960784, 46.534884)" sketch:type="MSShapeGroup">
                            <path d="M0.0408392157,2.77620698 L3.35219216,0.163834884" id="Fill-28" fill="#37ABE2"></path>
                            <path d="M0.0408392157,2.77620698 L3.35219216,0.163834884" id="Stroke-29" stroke="#246FB7" stroke-linecap="round" stroke-linejoin="round"></path>
                        </g>
                        <g id="Group-50">
                            <path d="M38.6573725,34.7805733 C38.6573725,16.1224919 43.3313725,0.99705 49.097098,0.99705 C54.8628235,0.99705 59.5368235,16.1224919 59.5368235,34.7805733 C59.5368235,53.4386547 54.8628235,68.5640965 49.097098,68.5640965 C43.3313725,68.5640965 38.6573725,53.4386547 38.6573725,34.7805733" id="Fill-31" fill="#B0DEF4" sketch:type="MSShapeGroup"></path>
                            <path d="M38.6573725,34.7805733 C38.6573725,16.1224919 43.3313725,0.99705 49.097098,0.99705 C54.8628235,0.99705 59.5368235,16.1224919 59.5368235,34.7805733 C59.5368235,53.4386547 54.8628235,68.5640965 49.097098,68.5640965 C43.3313725,68.5640965 38.6573725,53.4386547 38.6573725,34.7805733 L38.6573725,34.7805733 Z" id="Stroke-33" stroke="#7FCBEE" sketch:type="MSShapeGroup"></path>
                            <g id="Group-39" transform="translate(36.176471, 0.802326)" sketch:type="MSShapeGroup">
                                <path d="M0.0754078431,33.9550605 C0.0754078431,15.2969791 4.74940784,0.171537209 10.5151333,0.171537209 C16.2808588,0.171537209 20.9548588,15.2969791 20.9548588,33.9550605 C20.9548588,52.6131419 16.2808588,67.7385837 10.5151333,67.7385837 C4.74940784,67.7385837 0.0754078431,52.6131419 0.0754078431,33.9550605" id="Fill-35" fill="#B0DEF4"></path>
                                <path d="M0.0754078431,33.9550605 C0.0754078431,15.2969791 4.74940784,0.171537209 10.5151333,0.171537209 C16.2808588,0.171537209 20.9548588,15.2969791 20.9548588,33.9550605 C20.9548588,52.6131419 16.2808588,67.7385837 10.5151333,67.7385837 C4.74940784,67.7385837 0.0754078431,52.6131419 0.0754078431,33.9550605 L0.0754078431,33.9550605 Z" id="Stroke-37" stroke="#7FCBEE"></path>
                            </g>
                            <path d="M38.2994667,35.4871814 C38.2994667,23.800507 40.7273098,13.4938326 44.4245451,7.37369302 C42.0545843,14.5440767 40.5954667,24.2770884 40.5954667,35.0073907 C40.5954667,46.8336698 42.3665059,57.4532512 45.1778196,64.7584256 C41.0609373,58.8388674 38.2994667,47.9489023 38.2994667,35.4871814" id="Fill-40" fill="#FEFEFE" sketch:type="MSShapeGroup"></path>
                            <g id="Group-45" sketch:type="MSShapeGroup">
                                <path d="M46.6904784,0.985416279 L49.0958118,1.00868372" id="Fill-42" fill="#B0DEF4"></path>
                                <path d="M46.6904784,0.985416279 L49.0958118,1.00868372" id="Stroke-44" stroke="#7FCBEE"></path>
                            </g>
                            <g id="Group-49">
                                <mask id="mask-2" sketch:name="Clip 47" fill="white">
                                    <use xlink:href="#path-1"></use>
                                </mask>
                                <g id="Clip-47"></g>
                                <path d="M46.6917647,68.5757302 L49.097098,68.5989977" id="Fill-46" fill="#B0DEF4" sketch:type="MSShapeGroup" mask="url(#mask-2)"></path>
                                <path d="M46.6917647,68.5757302 L49.097098,68.5989977" id="Stroke-48" stroke="#7FCBEE" sketch:type="MSShapeGroup" mask="url(#mask-2)"></path>
                            </g>
                        </g>
                    </g>
                </g>
            </g>
        </g>
    </g>
</svg>