<?xml version="1.0" encoding="UTF-8" standalone="no"?>
<svg width="130px" height="130px" viewBox="0 0 130 130" version="1.1" xmlns="http://www.w3.org/2000/svg" xmlns:xlink="http://www.w3.org/1999/xlink" xmlns:sketch="http://www.bohemiancoding.com/sketch/ns">
    <!-- Generator: sketchtool 3.4 (356) - http://www.bohemiancoding.com/sketch -->
    <title>Oval 8 + Oval 8 Copy 2 + Page 1</title>
    <desc>Created with sketchtool.</desc>
    <defs></defs>
    <g id="Page-1" stroke="none" stroke-width="1" fill="none" fill-rule="evenodd" sketch:type="MSPage">
        <g id="健康中心" sketch:type="MSArtboardGroup" transform="translate(-441.000000, -628.000000)">
            <g id="Oval-8-+-Oval-8-Copy-2-+-每年一次的眼病筛查-+-Page-1" sketch:type="MSLayerGroup" transform="translate(441.000000, 628.000000)">
                <g id="Oval-8-+-Oval-8-Copy-2-+-Page-1" transform="translate(1.000000, 1.000000)" sketch:type="MSShapeGroup">
                    <g id="Oval-8-+-Oval-8-Copy-2" stroke="#4F8FDA" stroke-width="2">
                        <path d="M64,128 C99.346224,128 128,99.346224 128,64 C128,28.653776 99.346224,0 64,0 C28.653776,0 0,28.653776 0,64 C0,99.346224 28.653776,128 64,128 Z" id="Oval-8"></path>
                        <path d="M64.5,120 C95.1518036,120 120,95.1518036 120,64.5 C120,33.8481964 95.1518036,9 64.5,9 C33.8481964,9 9,33.8481964 9,64.5 C9,95.1518036 33.8481964,120 64.5,120 Z" id="Oval-8" opacity="0.302472015"></path>
                    </g>
                    <g id="Page-1" transform="translate(19.000000, 41.000000)">
                        <path d="M68.7418282,17.3899216 C68.7418282,19.0992353 58.24364,29.9827647 45.2927341,29.9827647 C32.3418282,29.9827647 21.84364,19.5651176 21.84364,17.3899216 C21.84364,16.1464902 32.3418282,4.79707843 45.2927341,4.79707843 C58.24364,4.79707843 68.7418282,15.9911961 68.7418282,17.3899216" id="Fill-1" fill="#DEF0F4"></path>
                        <path d="M68.7418282,17.3899216 C68.7418282,19.0992353 58.24364,29.9827647 45.2927341,29.9827647 C32.3418282,29.9827647 21.84364,19.5651176 21.84364,17.3899216 C21.84364,16.1464902 32.3418282,4.79707843 45.2927341,4.79707843 C58.24364,4.79707843 68.7418282,15.9911961 68.7418282,17.3899216 L68.7418282,17.3899216 Z" id="Stroke-3" stroke="#1B90D0" stroke-linecap="round"></path>
                        <path d="M56.2547012,17.3899216 C56.2547012,23.488451 51.3471247,28.4319804 45.2929482,28.4319804 C39.2387718,28.4319804 34.3301247,23.488451 34.3301247,17.3899216 C34.3301247,11.2913922 39.2387718,6.34786275 45.2929482,6.34786275 C51.3471247,6.34786275 56.2547012,11.2913922 56.2547012,17.3899216" id="Fill-5" fill="#FEFEFE"></path>
                        <path d="M56.2547012,17.3899216 C56.2547012,23.488451 51.3471247,28.4319804 45.2929482,28.4319804 C39.2387718,28.4319804 34.3301247,23.488451 34.3301247,17.3899216 C34.3301247,11.2913922 39.2387718,6.34786275 45.2929482,6.34786275 C51.3471247,6.34786275 56.2547012,11.2913922 56.2547012,17.3899216 L56.2547012,17.3899216 Z" id="Stroke-7" stroke="#53B8E8"></path>
                        <path d="M50.8631118,17.183402 C50.8631118,20.2213431 48.4178882,22.6844804 45.4020412,22.6844804 C42.3861941,22.6844804 39.9420412,20.2213431 39.9420412,17.183402 C39.9420412,14.1454608 42.3861941,11.6823235 45.4020412,11.6823235 C48.4178882,11.6823235 50.8631118,14.1454608 50.8631118,17.183402" id="Fill-9" fill="#107FC2"></path>
                        <path d="M49.0769424,15.4676176 C49.0769424,16.3530098 48.3639306,17.0712451 47.4849776,17.0712451 C46.6060247,17.0712451 45.8930129,16.3530098 45.8930129,15.4676176 C45.8930129,14.5822255 46.6060247,13.8639902 47.4849776,13.8639902 C48.3639306,13.8639902 49.0769424,14.5822255 49.0769424,15.4676176" id="Fill-11" fill="#FEFEFE"></path>
                        <path d="M26.6034753,51.6382059 C26.0692518,48.8332059 24.3659459,46.3948725 21.9260753,44.9411471 L21.9260753,44.9411471 C12.6633459,39.4228137 5.50218118,30.9387941 1.58382824,20.8425196 L0.607451765,18.3286961 C0.339804706,17.6385 0.845122353,16.8933039 1.58061647,16.8933039 L2.21012235,16.8933039 C3.33102824,16.8933039 4.38769882,17.4195784 5.06859294,18.3168333 L11.0542518,27.8480098 C15.1074988,32.3979118 18.4498753,33.8861471 21.4924871,34.2269314 L22.9838165,34.3940882 L19.4819224,28.850951 C18.7796165,27.7390882 19.2710165,26.258402 20.4957694,25.7957549 L20.4957694,25.7957549 C21.2965694,25.4937941 22.1990753,25.7202647 22.7632753,26.3673235 L30.2616753,34.9451667 C31.1192165,35.9265392 31.8322282,37.0254608 32.3803694,38.2106569 L39.8937576,54.4604608" id="Stroke-13" stroke="#1B90D0" stroke-linecap="round" stroke-linejoin="round"></path>
                        <path d="M64.3579835,51.6382059 C64.8922071,48.8332059 66.5955129,46.3948725 69.0353835,44.9411471 L69.0353835,44.9411471 C78.2981129,39.4228137 85.4592776,30.9387941 89.3776306,20.8425196 L90.3540071,18.3286961 C90.6216541,17.6385 90.1163365,16.8933039 89.3808424,16.8933039 L88.7513365,16.8933039 C87.6304306,16.8933039 86.57376,17.4195784 85.8928659,18.3168333 L79.9072071,27.8480098 C75.85396,32.3979118 72.5115835,33.8861471 69.4689718,34.2269314 L67.9776424,34.3940882 L71.4795365,28.850951 C72.1818424,27.7390882 71.6904424,26.258402 70.4656894,25.7957549 L70.4656894,25.7957549 C69.6648894,25.4937941 68.7623835,25.7202647 68.1981835,26.3673235 L60.6997835,34.9451667 C59.8422424,35.9265392 59.1292306,37.0254608 58.5810894,38.2106569 L51.0677012,54.4604608" id="Stroke-15" stroke="#1B90D0" stroke-linecap="round" stroke-linejoin="round"></path>
                        <path d="M25.0928753,5.84455882 C25.0928753,5.84455882 35.6713576,0.193578431 45.2927341,0.193578431 C54.9141106,0.193578431 65.4925929,5.84455882 65.4925929,5.84455882" id="Stroke-17" stroke="#1B90D0" stroke-linecap="round"></path>
                    </g>
                </g>
            </g>
        </g>
    </g>
</svg>