<?xml version="1.0" encoding="UTF-8" standalone="no"?>
<svg width="130px" height="130px" viewBox="0 0 130 130" version="1.1" xmlns="http://www.w3.org/2000/svg" xmlns:xlink="http://www.w3.org/1999/xlink" xmlns:sketch="http://www.bohemiancoding.com/sketch/ns">
    <!-- Generator: sketchtool 3.4 (356) - http://www.bohemiancoding.com/sketch -->
    <title>Oval 8 + Oval 8 + Page 1</title>
    <desc>Created with sketchtool.</desc>
    <defs></defs>
    <g id="Page-1" stroke="none" stroke-width="1" fill="none" fill-rule="evenodd" sketch:type="MSPage">
        <g id="健康中心" sketch:type="MSArtboardGroup" transform="translate(-441.000000, -310.000000)">
            <g id="AKESO眼镜试带服务-+-Oval-8-+-Oval-8-+-Page-1" sketch:type="MSLayerGroup" transform="translate(441.000000, 310.000000)">
                <g id="Oval-8-+-Oval-8-+-Page-1" transform="translate(1.000000, 1.000000)" sketch:type="MSShapeGroup">
                    <g id="Oval-8-+-Oval-8" stroke="#4F8FDA" stroke-width="2">
                        <path d="M64,128 C99.346224,128 128,99.346224 128,64 C128,28.653776 99.346224,0 64,0 C28.653776,0 0,28.653776 0,64 C0,99.346224 28.653776,128 64,128 Z" id="Oval-8"></path>
                        <path d="M64.5,120 C95.1518036,120 120,95.1518036 120,64.5 C120,33.8481964 95.1518036,9 64.5,9 C33.8481964,9 9,33.8481964 9,64.5 C9,95.1518036 33.8481964,120 64.5,120 Z" id="Oval-8" opacity="0.302472015"></path>
                    </g>
                    <g id="Page-1" transform="translate(18.000000, 48.000000)">
                        <path d="M11.6101279,19.75248 L2.49273088,19.75248 C1.48637794,19.75248 0.668716176,18.94728 0.668716176,17.95332 C0.668716176,16.95936 1.48637794,16.15548 2.49273088,16.15548 L11.6101279,16.15548 C12.6164809,16.15548 13.4328044,16.95936 13.4328044,17.95332 C13.4328044,18.94728 12.6164809,19.75248 11.6101279,19.75248" id="Fill-1" fill="#DEF0F4"></path>
                        <path d="M11.6101279,19.75248 L2.49273088,19.75248 C1.48637794,19.75248 0.668716176,18.94728 0.668716176,17.95332 C0.668716176,16.95936 1.48637794,16.15548 2.49273088,16.15548 L11.6101279,16.15548 C12.6164809,16.15548 13.4328044,16.95936 13.4328044,17.95332 C13.4328044,18.94728 12.6164809,19.75248 11.6101279,19.75248 L11.6101279,19.75248 Z" id="Stroke-3" stroke="#67ABDE"></path>
                        <path d="M31.6670632,24.348192 C31.1076809,24.348192 30.6540191,23.900712 30.6540191,23.348952 C30.6540191,19.003512 26.3783574,18.953352 26.1963574,18.953352 L11.6095926,18.953352 C11.0502103,18.953352 10.5965485,18.505872 10.5965485,17.954112 C10.5965485,17.402352 11.0502103,16.953552 11.6095926,16.953552 L26.1963574,16.953552 C28.4392397,16.953552 32.6801074,18.290712 32.6801074,23.348952 C32.6801074,23.900712 32.2264456,24.348192 31.6670632,24.348192" id="Fill-5" fill="#DEF0F4"></path>
                        <path d="M31.6670632,24.348192 C31.1076809,24.348192 30.6540191,23.900712 30.6540191,23.348952 C30.6540191,19.003512 26.3783574,18.953352 26.1963574,18.953352 L11.6095926,18.953352 C11.0502103,18.953352 10.5965485,18.505872 10.5965485,17.954112 C10.5965485,17.402352 11.0502103,16.953552 11.6095926,16.953552 L26.1963574,16.953552 C28.4392397,16.953552 32.6801074,18.290712 32.6801074,23.348952 C32.6801074,23.900712 32.2264456,24.348192 31.6670632,24.348192 L31.6670632,24.348192 Z" id="Stroke-7" stroke="#67ABDE"></path>
                        <path d="M88.1923824,19.75248 L79.0749853,19.75248 C78.0686324,19.75248 77.2523088,18.94728 77.2523088,17.95332 C77.2523088,16.95936 78.0686324,16.15548 79.0749853,16.15548 L88.1923824,16.15548 C89.1987353,16.15548 90.0163971,16.95936 90.0163971,17.95332 C90.0163971,18.94728 89.1987353,19.75248 88.1923824,19.75248" id="Fill-9" fill="#DEF0F4"></path>
                        <path d="M88.1923824,19.75248 L79.0749853,19.75248 C78.0686324,19.75248 77.2523088,18.94728 77.2523088,17.95332 C77.2523088,16.95936 78.0686324,16.15548 79.0749853,16.15548 L88.1923824,16.15548 C89.1987353,16.15548 90.0163971,16.95936 90.0163971,17.95332 C90.0163971,18.94728 89.1987353,19.75248 88.1923824,19.75248 L88.1923824,19.75248 Z" id="Stroke-11" stroke="#67ABDE"></path>
                        <path d="M59.0183176,24.348192 C58.4589353,24.348192 58.0052735,23.900712 58.0052735,23.348952 C58.0052735,18.290712 62.2461412,16.953552 64.4876853,16.953552 L79.0757882,16.953552 C79.6351706,16.953552 80.0888324,17.402352 80.0888324,17.954112 C80.0888324,18.505872 79.6351706,18.953352 79.0757882,18.953352 L64.4876853,18.953352 C64.0353618,18.955992 60.0313618,19.110432 60.0313618,23.348952 C60.0313618,23.900712 59.5777,24.348192 59.0183176,24.348192" id="Fill-13" fill="#DEF0F4"></path>
                        <path d="M59.0183176,24.348192 C58.4589353,24.348192 58.0052735,23.900712 58.0052735,23.348952 C58.0052735,18.290712 62.2461412,16.953552 64.4876853,16.953552 L79.0757882,16.953552 C79.6351706,16.953552 80.0888324,17.402352 80.0888324,17.954112 C80.0888324,18.505872 79.6351706,18.953352 79.0757882,18.953352 L64.4876853,18.953352 C64.0353618,18.955992 60.0313618,19.110432 60.0313618,23.348952 C60.0313618,23.900712 59.5777,24.348192 59.0183176,24.348192 L59.0183176,24.348192 Z" id="Stroke-15" stroke="#67ABDE"></path>
                        <path d="M50.8126603,20.751852 C50.2532779,20.751852 49.7996162,20.304372 49.7996162,19.752612 L49.7996162,16.155612 C49.7969397,15.708132 49.6390279,11.758692 45.3432926,11.758692 C40.9364838,11.758692 40.8856309,15.976092 40.8856309,16.155612 L40.8856309,19.752612 C40.8856309,20.304372 40.4319691,20.751852 39.8725868,20.751852 C39.3132044,20.751852 38.8595426,20.304372 38.8595426,19.752612 L38.8595426,16.155612 C38.8595426,13.943292 40.2138368,9.760212 45.3432926,9.760212 C50.4714103,9.760212 51.8257044,13.943292 51.8257044,16.155612 L51.8257044,19.752612 C51.8257044,20.304372 51.3720426,20.751852 50.8126603,20.751852" id="Fill-17" fill="#DEF0F4"></path>
                        <path d="M50.8126603,20.751852 C50.2532779,20.751852 49.7996162,20.304372 49.7996162,19.752612 L49.7996162,16.155612 C49.7969397,15.708132 49.6390279,11.758692 45.3432926,11.758692 C40.9364838,11.758692 40.8856309,15.976092 40.8856309,16.155612 L40.8856309,19.752612 C40.8856309,20.304372 40.4319691,20.751852 39.8725868,20.751852 C39.3132044,20.751852 38.8595426,20.304372 38.8595426,19.752612 L38.8595426,16.155612 C38.8595426,13.943292 40.2138368,9.760212 45.3432926,9.760212 C50.4714103,9.760212 51.8257044,13.943292 51.8257044,16.155612 L51.8257044,19.752612 C51.8257044,20.304372 51.3720426,20.751852 50.8126603,20.751852 L50.8126603,20.751852 Z" id="Stroke-19" stroke="#67ABDE"></path>
                        <path d="M39.3494706,30.63852 L5.65136765,30.63852 L5.65136765,2.8512 L39.3494706,2.8512 L39.3494706,30.63852 Z" id="Fill-21" opacity="0.631413246" fill="#DEF0F4"></path>
                        <path d="M87.0481912,30.63852 L53.3500882,30.63852 L53.3500882,2.8512 L87.0481912,2.8512 L87.0481912,30.63852 Z" id="Fill-23" opacity="0.650886194" fill="#DEF0F4"></path>
                        <path d="M38.1708868,26.529624 C38.1708868,28.312944 36.6493132,29.772864 34.7905044,29.772864 L9.76818088,29.772864 C7.90937206,29.772864 6.38779853,28.312944 6.38779853,26.529624 L6.38779853,6.678144 C6.38779853,4.893504 7.90937206,3.434904 9.76818088,3.434904 L34.7905044,3.434904 C36.6493132,3.434904 38.1708868,4.893504 38.1708868,6.678144 L38.1708868,26.529624 Z M34.1722397,0.867504 L10.3864456,0.867504 C6.75046029,0.867504 3.77556324,3.801864 3.77556324,7.388304 L3.77556324,25.818144 C3.77556324,29.404584 6.75046029,32.340264 10.3864456,32.340264 L34.1722397,32.340264 C37.808225,32.340264 40.7831221,29.404584 40.7831221,25.818144 L40.7831221,7.388304 C40.7831221,3.801864 37.808225,0.867504 34.1722397,0.867504 L34.1722397,0.867504 Z" id="Fill-25" fill="#DEF0F4"></path>
                        <path d="M38.1708868,26.529624 C38.1708868,28.312944 36.6493132,29.772864 34.7905044,29.772864 L9.76818088,29.772864 C7.90937206,29.772864 6.38779853,28.312944 6.38779853,26.529624 L6.38779853,6.678144 C6.38779853,4.893504 7.90937206,3.434904 9.76818088,3.434904 L34.7905044,3.434904 C36.6493132,3.434904 38.1708868,4.893504 38.1708868,6.678144 L38.1708868,26.529624 L38.1708868,26.529624 Z M34.1722397,0.867504 L10.3864456,0.867504 C6.75046029,0.867504 3.77556324,3.801864 3.77556324,7.388304 L3.77556324,25.818144 C3.77556324,29.404584 6.75046029,32.340264 10.3864456,32.340264 L34.1722397,32.340264 C37.808225,32.340264 40.7831221,29.404584 40.7831221,25.818144 L40.7831221,7.388304 C40.7831221,3.801864 37.808225,0.867504 34.1722397,0.867504 L34.1722397,0.867504 Z" id="Stroke-27" stroke="#67ABDE"></path>
                        <path d="M84.4348853,26.529624 C84.4348853,28.312944 82.9133118,29.772864 81.0545029,29.772864 L56.0321794,29.772864 C54.1733706,29.772864 52.6517971,28.312944 52.6517971,26.529624 L52.6517971,6.678144 C52.6517971,4.893504 54.1733706,3.434904 56.0321794,3.434904 L81.0545029,3.434904 C82.9133118,3.434904 84.4348853,4.893504 84.4348853,6.678144 L84.4348853,26.529624 Z M80.4362382,0.867504 L56.6504441,0.867504 C53.0144588,0.867504 50.0395618,3.801864 50.0395618,7.388304 L50.0395618,25.818144 C50.0395618,29.404584 53.0144588,32.340264 56.6504441,32.340264 L80.4362382,32.340264 C84.0722235,32.340264 87.0471206,29.404584 87.0471206,25.818144 L87.0471206,7.388304 C87.0471206,3.801864 84.0722235,0.867504 80.4362382,0.867504 L80.4362382,0.867504 Z" id="Fill-29" fill="#DEF0F4"></path>
                        <path d="M84.4348853,26.529624 C84.4348853,28.312944 82.9133118,29.772864 81.0545029,29.772864 L56.0321794,29.772864 C54.1733706,29.772864 52.6517971,28.312944 52.6517971,26.529624 L52.6517971,6.678144 C52.6517971,4.893504 54.1733706,3.434904 56.0321794,3.434904 L81.0545029,3.434904 C82.9133118,3.434904 84.4348853,4.893504 84.4348853,6.678144 L84.4348853,26.529624 L84.4348853,26.529624 Z M80.4362382,0.867504 L56.6504441,0.867504 C53.0144588,0.867504 50.0395618,3.801864 50.0395618,7.388304 L50.0395618,25.818144 C50.0395618,29.404584 53.0144588,32.340264 56.6504441,32.340264 L80.4362382,32.340264 C84.0722235,32.340264 87.0471206,29.404584 87.0471206,25.818144 L87.0471206,7.388304 C87.0471206,3.801864 84.0722235,0.867504 80.4362382,0.867504 L80.4362382,0.867504 Z" id="Stroke-31" stroke="#67ABDE"></path>
                    </g>
                </g>
            </g>
        </g>
    </g>
</svg>