<?xml version="1.0" encoding="UTF-8" standalone="no"?>
<svg width="130px" height="130px" viewBox="0 0 130 130" version="1.1" xmlns="http://www.w3.org/2000/svg" xmlns:xlink="http://www.w3.org/1999/xlink" xmlns:sketch="http://www.bohemiancoding.com/sketch/ns">
    <!-- Generator: sketchtool 3.4 (356) - http://www.bohemiancoding.com/sketch -->
    <title>Oval 8 + Oval 8 Copy 3 + Page 1</title>
    <desc>Created with sketchtool.</desc>
    <defs>
        <path id="path-1" d="M0,0.842988506 L61.959831,0.842988506 L61.959831,76 L0,76 L0,0.842988506 Z"></path>
    </defs>
    <g id="Page-1" stroke="none" stroke-width="1" fill="none" fill-rule="evenodd" sketch:type="MSPage">
        <g id="健康中心" sketch:type="MSArtboardGroup" transform="translate(-441.000000, -790.000000)">
            <g id="Oval-8-+-Oval-8-Copy-3-+-慢病管理-+-Page-1" sketch:type="MSLayerGroup" transform="translate(441.000000, 787.000000)">
                <g id="Oval-8-+-Oval-8-Copy-3-+-Page-1" transform="translate(1.000000, 4.000000)">
                    <g id="Oval-8-+-Oval-8-Copy-3" stroke="#4F8FDA" stroke-width="2" sketch:type="MSShapeGroup">
                        <path d="M64,128 C99.346224,128 128,99.346224 128,64 C128,28.653776 99.346224,0 64,0 C28.653776,0 0,28.653776 0,64 C0,99.346224 28.653776,128 64,128 Z" id="Oval-8"></path>
                        <path d="M64.5,120 C95.1518036,120 120,95.1518036 120,64.5 C120,33.8481964 95.1518036,9 64.5,9 C33.8481964,9 9,33.8481964 9,64.5 C9,95.1518036 33.8481964,120 64.5,120 Z" id="Oval-8" opacity="0.302472015"></path>
                    </g>
                    <g id="Page-1" transform="translate(33.000000, 26.000000)">
                        <path d="M0.436969014,1.28046897 L0.436969014,60.4154575 L6.92601127,60.4154575 L46.3807155,7.77191724 L46.3807155,1.28046897 L0.436969014,1.28046897 Z" id="Fill-1" fill="#FEFEFE" sketch:type="MSShapeGroup"></path>
                        <g id="Group-35">
                            <path d="M6.92609859,60.4153701 L0.436183099,60.4153701 L0.436183099,1.28038161 L46.3808028,1.28038161 L46.3808028,7.77182989" id="Stroke-2" stroke="#53B8E8" sketch:type="MSShapeGroup"></path>
                            <path d="M41.3111239,66.9073425 L8.00751831,66.9073425 C7.41022254,66.9073425 6.92644789,66.4225149 6.92644789,65.8249977 L6.92644789,8.85382529 C6.92644789,8.25630805 7.41022254,7.77235402 8.00751831,7.77235402 L51.7891239,7.77235402 C52.3864197,7.77235402 52.8701944,8.25630805 52.8701944,8.85382529 L52.8701944,55.3431126 C52.8701944,55.6305149 52.7566732,55.9056874 52.5540817,56.108354 L42.0760817,66.5902391 C41.8734901,66.7937793 41.5975465,66.9073425 41.3111239,66.9073425" id="Fill-4" fill="#DEF0F4" sketch:type="MSShapeGroup"></path>
                            <path d="M41.3111239,66.9073425 L8.00751831,66.9073425 C7.41022254,66.9073425 6.92644789,66.4225149 6.92644789,65.8249977 L6.92644789,8.85382529 C6.92644789,8.25630805 7.41022254,7.77235402 8.00751831,7.77235402 L51.7891239,7.77235402 C52.3864197,7.77235402 52.8701944,8.25630805 52.8701944,8.85382529 L52.8701944,55.3431126 C52.8701944,55.6305149 52.7566732,55.9056874 52.5540817,56.108354 L42.0760817,66.5902391 C41.8734901,66.7937793 41.5975465,66.9073425 41.3111239,66.9073425 L41.3111239,66.9073425 Z" id="Stroke-6" stroke="#1B90D0" stroke-linecap="round" sketch:type="MSShapeGroup"></path>
                            <path d="M41.7590958,66.9073425 L41.7590958,55.7912506 L52.8701944,55.7912506 L41.7590958,66.9073425 Z" id="Fill-8" fill="#FEFEFE" sketch:type="MSShapeGroup"></path>
                            <path d="M41.7590958,66.9073425 L41.7590958,55.7912506 L52.8701944,55.7912506 L41.7590958,66.9073425 L41.7590958,66.9073425 Z" id="Stroke-10" stroke="#246FB7" stroke-linejoin="round" sketch:type="MSShapeGroup"></path>
                            <mask id="mask-2" sketch:name="Clip 13" fill="white">
                                <use xlink:href="#path-1"></use>
                            </mask>
                            <g id="Clip-13"></g>
                            <path d="M28.523493,30.0409655 L14.9996338,30.0409655 L14.9996338,21.4285057 L28.523493,21.4285057 L28.523493,30.0409655 Z" id="Fill-12" fill="#FEFEFE" sketch:type="MSShapeGroup" mask="url(#mask-2)"></path>
                            <path d="M28.523493,30.0409655 L14.9996338,30.0409655 L14.9996338,21.4285057 L28.523493,21.4285057 L28.523493,30.0409655 Z" id="Stroke-14" stroke="#53B8E8" sketch:type="MSShapeGroup" mask="url(#mask-2)"></path>
                            <g id="Group-17" mask="url(#mask-2)" sketch:type="MSShapeGroup">
                                <g transform="translate(34.056338, 20.965517)">
                                    <path d="M0.442994366,0.462813793 L10.741107,0.462813793" id="Fill-15" stroke="none" fill="#FEFEFE" fill-rule="evenodd"></path>
                                    <path d="M0.442994366,0.462813793 L10.741107,0.462813793" id="Stroke-16" stroke="#53B8E8" stroke-width="1" fill="none"></path>
                                </g>
                            </g>
                            <g id="Group-20" mask="url(#mask-2)" sketch:type="MSShapeGroup">
                                <g transform="translate(34.056338, 25.333333)">
                                    <path d="M0.442994366,0.401402299 L10.741107,0.401402299" id="Fill-18" stroke="none" fill="#FEFEFE" fill-rule="evenodd"></path>
                                    <path d="M0.442994366,0.401402299 L10.741107,0.401402299" id="Stroke-19" stroke="#53B8E8" stroke-width="1" fill="none"></path>
                                </g>
                            </g>
                            <g id="Group-23" mask="url(#mask-2)" sketch:type="MSShapeGroup">
                                <g transform="translate(34.056338, 29.701149)">
                                    <path d="M0.442994366,0.339990805 L10.741107,0.339990805" id="Fill-21" stroke="none" fill="#FEFEFE" fill-rule="evenodd"></path>
                                    <path d="M0.442994366,0.339990805 L10.741107,0.339990805" id="Stroke-22" stroke="#53B8E8" stroke-width="1" fill="none"></path>
                                </g>
                            </g>
                            <g id="Group-26" mask="url(#mask-2)" sketch:type="MSShapeGroup">
                                <g transform="translate(13.971831, 41.057471)">
                                    <path d="M0.0227915493,0.230183908 L30.8254394,0.230183908" id="Fill-24" stroke="none" fill="#FEFEFE" fill-rule="evenodd"></path>
                                    <path d="M0.0227915493,0.230183908 L30.8254394,0.230183908" id="Stroke-25" stroke="#53B8E8" stroke-width="1" fill="none"></path>
                                </g>
                            </g>
                            <g id="Group-29" mask="url(#mask-2)" sketch:type="MSShapeGroup">
                                <g transform="translate(13.971831, 45.425287)">
                                    <path d="M0.0227915493,0.539862069 L30.8254394,0.539862069" id="Fill-27" stroke="none" fill="#FEFEFE" fill-rule="evenodd"></path>
                                    <path d="M0.0227915493,0.539862069 L30.8254394,0.539862069" id="Stroke-28" stroke="#53B8E8" stroke-width="1" fill="none"></path>
                                </g>
                            </g>
                            <g id="Group-32" mask="url(#mask-2)" sketch:type="MSShapeGroup">
                                <g transform="translate(13.971831, 49.793103)">
                                    <path d="M0.0227915493,0.849452874 L30.8254394,0.849452874" id="Fill-30" stroke="none" fill="#FEFEFE" fill-rule="evenodd"></path>
                                    <path d="M0.0227915493,0.849452874 L30.8254394,0.849452874" id="Stroke-31" stroke="#53B8E8" stroke-width="1" fill="none"></path>
                                </g>
                            </g>
                            <path d="M15.5788535,75.5632184 L47.1665437,75.5632184 L61.5234732,61.2009655 L61.5234732,17.5097011" id="Stroke-33" stroke="#37ABE2" stroke-linecap="round" stroke-linejoin="round" sketch:type="MSShapeGroup" mask="url(#mask-2)"></path>
                            <path d="M11.2524761,71.2352368 L45.0031803,71.2352368 L57.1970958,59.0376736 L57.1970958,13.1817195" id="Stroke-34" stroke="#107FC2" stroke-linecap="round" stroke-linejoin="round" sketch:type="MSShapeGroup" mask="url(#mask-2)"></path>
                        </g>
                    </g>
                </g>
            </g>
        </g>
    </g>
</svg>